<?xml version="1.0" standalone="no"?>
<!DOCTYPE svg PUBLIC "-//W3C//DTD SVG 20010904//EN"
 "http://www.w3.org/TR/2001/REC-SVG-20010904/DTD/svg10.dtd">
<svg version="1.0" xmlns="http://www.w3.org/2000/svg"
 width="332.000000pt" height="376.000000pt" viewBox="0 0 332.000000 376.000000"
 preserveAspectRatio="xMidYMid meet">
<metadata>
Created by potrace 1.16, written by Peter Selinger 2001-2019
</metadata>
<g transform="translate(0.000000,376.000000) scale(0.100000,-0.100000)"
fill="#000000" stroke="none">
<path d="M0 1880 l0 -1880 1660 0 1660 0 0 1880 0 1880 -1660 0 -1660 0 0
-1880z m614 -1035 c-21 -19 -62 -54 -91 -78 -85 -69 -114 -157 -83 -251 14
-44 140 -165 204 -195 38 -19 59 -22 107 -19 86 6 128 40 211 168 37 58 66
108 65 112 -1 3 -51 50 -112 103 -60 54 -134 120 -163 146 l-53 49 85 0 c58 0
86 -4 89 -12 3 -10 9 -10 26 0 25 15 164 17 141 2 -8 -5 -11 -10 -7 -10 4 0
-4 -16 -19 -35 l-27 -36 39 -40 c57 -59 69 -64 89 -33 23 36 45 147 31 156 -6
4 17 8 52 8 40 0 61 -4 57 -10 -3 -5 -1 -10 6 -10 16 0 3 -103 -21 -157 -33
-76 -234 -394 -275 -435 -63 -64 -134 -93 -230 -93 -101 0 -159 26 -268 119
-117 101 -157 176 -157 295 0 97 24 154 96 228 l62 63 93 0 93 0 -40 -35z
m2464 23 c1 -7 5 -31 8 -52 15 -92 -48 -251 -124 -313 -131 -108 -88 -103
-934 -103 l-718 0 0 60 0 59 723 3 c558 3 731 7 761 17 48 16 132 93 153 141
16 38 34 192 21 184 -4 -3 -8 0 -8 5 0 16 116 14 118 -1z"/>
</g>
</svg>
